<svg width="16" height="12" viewBox="0 0 16 12" fill="none" xmlns="http://www.w3.org/2000/svg">
<g id="Group">
<path id="Vector" d="M14.4784 5.25857C14.817 5.70143 14.817 6.29929 14.4784 6.74143C13.412 8.13357 10.8534 11 7.86629 11C4.87915 11 2.32057 8.13357 1.25415 6.74143C1.08942 6.52938 1 6.26851 1 6C1 5.73149 1.08942 5.47062 1.25415 5.25857C2.32057 3.86643 4.87915 1 7.86629 1C10.8534 1 13.412 3.86643 14.4784 5.25857V5.25857Z" stroke="white" stroke-linecap="round" stroke-linejoin="round"/>
<path id="Vector_2" d="M7.86649 8.14289C9.04996 8.14289 10.0093 7.1835 10.0093 6.00003C10.0093 4.81657 9.04996 3.85718 7.86649 3.85718C6.68302 3.85718 5.72363 4.81657 5.72363 6.00003C5.72363 7.1835 6.68302 8.14289 7.86649 8.14289Z" stroke="white" stroke-linecap="round" stroke-linejoin="round"/>
</g>
</svg>
