<svg width="28" height="28" viewBox="0 0 28 28" fill="none" xmlns="http://www.w3.org/2000/svg">
<g id="Group">
<rect id="Rectangle 1825" width="28" height="28" rx="2" fill="#434EC4"/>
<g id="MicrophoneSlash">
<path id="Vector" d="M17.3086 17.6436C16.6374 18.2539 15.8106 18.6669 14.9195 18.8369C14.0284 19.007 13.1076 18.9274 12.2588 18.607C11.4101 18.2866 10.6664 17.7378 10.11 17.0213C9.55348 16.3049 9.20585 15.4485 9.10547 14.5469" stroke="white" stroke-width="0.8" stroke-linecap="round" stroke-linejoin="round"/>
<path id="Vector_2" d="M15.8389 16.0234C15.3371 16.4831 14.6805 16.737 14 16.7344V16.7344C13.2748 16.7344 12.5793 16.4463 12.0665 15.9335C11.5537 15.4207 11.2656 14.7252 11.2656 14V10.9922" stroke="white" stroke-width="0.8" stroke-linecap="round" stroke-linejoin="round"/>
<path id="Vector_3" d="M14 18.9219V21.1094" stroke="white" stroke-width="0.8" stroke-linecap="round" stroke-linejoin="round"/>
<path id="Vector_4" d="M8.53125 7.98438L19.4688 20.0156" stroke="white" stroke-width="0.8" stroke-linecap="round" stroke-linejoin="round"/>
<path id="Vector_5" d="M11.6758 8.18946C11.9194 7.79196 12.2612 7.46375 12.6682 7.23631C13.0752 7.00887 13.5338 6.88984 14 6.89063V6.89063C14.7252 6.89063 15.4207 7.17871 15.9335 7.69151C16.4463 8.2043 16.7344 8.8998 16.7344 9.625V13.7539" stroke="white" stroke-width="0.8" stroke-linecap="round" stroke-linejoin="round"/>
<g id="Vector_6">
<path d="M18.8945 14.5469C18.8463 14.9732 18.7429 15.3914 18.5869 15.791L18.8945 14.5469Z" fill="#031639"/>
<path d="M18.8945 14.5469C18.8463 14.9732 18.7429 15.3914 18.5869 15.791" stroke="white" stroke-width="0.8" stroke-linecap="round" stroke-linejoin="round"/>
</g>
</g>
</g>
</svg>
